<svg width="97" height="12" viewBox="0 0 97 12" fill="none" xmlns="http://www.w3.org/2000/svg">
<path d="M3.91722 11.616C3.59722 11.616 3.26922 11.604 2.93322 11.58C2.59722 11.556 2.28922 11.524 2.00922 11.484V9.864C2.28922 9.904 2.59722 9.936 2.93322 9.96C3.27722 9.992 3.58922 10.008 3.86922 10.008C4.38922 10.008 4.80922 9.948 5.12922 9.828C5.45722 9.708 5.69722 9.524 5.84922 9.276C6.00122 9.036 6.07722 8.724 6.07722 8.34V7.032L6.42522 6.264C6.40922 6.848 6.29322 7.348 6.07722 7.764C5.86922 8.18 5.57722 8.5 5.20122 8.724C4.82522 8.94 4.37722 9.048 3.85722 9.048C3.40922 9.048 3.00122 8.968 2.63322 8.808C2.27322 8.64 1.96522 8.408 1.70922 8.112C1.45322 7.816 1.25722 7.472 1.12122 7.08C0.985219 6.68 0.917219 6.248 0.917219 5.784V5.508C0.917219 5.044 0.989219 4.612 1.13322 4.212C1.27722 3.812 1.48522 3.464 1.75722 3.168C2.02922 2.872 2.35322 2.644 2.72922 2.484C3.10522 2.316 3.52122 2.232 3.97722 2.232C4.50522 2.232 4.96122 2.348 5.34522 2.58C5.73722 2.812 6.04522 3.152 6.26922 3.6C6.49322 4.048 6.61322 4.588 6.62922 5.22L6.36522 5.292V2.424H7.88922V8.22C7.88922 9.028 7.74522 9.68 7.45722 10.176C7.16922 10.672 6.72922 11.036 6.13722 11.268C5.55322 11.5 4.81322 11.616 3.91722 11.616ZM4.45722 7.428C4.75322 7.428 5.02122 7.364 5.26122 7.236C5.50122 7.1 5.68922 6.908 5.82522 6.66C5.96922 6.412 6.04122 6.112 6.04122 5.76V5.412C6.04122 5.068 5.96522 4.78 5.81322 4.548C5.66922 4.308 5.47722 4.128 5.23722 4.008C4.99722 3.88 4.74122 3.816 4.46922 3.816C4.14922 3.816 3.86522 3.892 3.61722 4.044C3.36922 4.196 3.17722 4.408 3.04122 4.68C2.90522 4.952 2.83722 5.272 2.83722 5.64C2.83722 6.016 2.90522 6.34 3.04122 6.612C3.18522 6.876 3.37722 7.08 3.61722 7.224C3.86522 7.36 4.14522 7.428 4.45722 7.428ZM13.5238 9V7.056H13.1998V4.944C13.1998 4.608 13.1198 4.356 12.9598 4.188C12.7998 4.02 12.5438 3.936 12.1918 3.936C12.0158 3.936 11.7838 3.94 11.4958 3.948C11.2078 3.956 10.9118 3.968 10.6078 3.984C10.3038 4 10.0278 4.016 9.77978 4.032V2.412C9.96378 2.396 10.1798 2.38 10.4278 2.364C10.6758 2.348 10.9318 2.336 11.1958 2.328C11.4598 2.32 11.7078 2.316 11.9398 2.316C12.6118 2.316 13.1758 2.412 13.6318 2.604C14.0958 2.796 14.4478 3.088 14.6878 3.48C14.9278 3.864 15.0478 4.36 15.0478 4.968V9H13.5238ZM11.4238 9.168C10.9518 9.168 10.5358 9.084 10.1758 8.916C9.82378 8.748 9.54778 8.508 9.34778 8.196C9.14778 7.876 9.04778 7.496 9.04778 7.056C9.04778 6.576 9.17178 6.184 9.41978 5.88C9.66778 5.568 10.0158 5.34 10.4638 5.196C10.9118 5.044 11.4278 4.968 12.0118 4.968H13.4158V6.036H11.9998C11.6638 6.036 11.4038 6.12 11.2198 6.288C11.0438 6.448 10.9558 6.668 10.9558 6.948C10.9558 7.212 11.0438 7.428 11.2198 7.596C11.4038 7.756 11.6638 7.836 11.9998 7.836C12.2158 7.836 12.4078 7.8 12.5758 7.728C12.7518 7.648 12.8958 7.516 13.0078 7.332C13.1198 7.148 13.1838 6.892 13.1998 6.564L13.6558 7.044C13.6158 7.5 13.5038 7.884 13.3198 8.196C13.1438 8.508 12.8958 8.748 12.5758 8.916C12.2638 9.084 11.8798 9.168 11.4238 9.168ZM19.2688 11.616C18.9488 11.616 18.6208 11.604 18.2848 11.58C17.9488 11.556 17.6408 11.524 17.3608 11.484V9.864C17.6408 9.904 17.9488 9.936 18.2848 9.96C18.6288 9.992 18.9408 10.008 19.2208 10.008C19.7408 10.008 20.1608 9.948 20.4808 9.828C20.8088 9.708 21.0488 9.524 21.2008 9.276C21.3528 9.036 21.4288 8.724 21.4288 8.34V7.032L21.7768 6.264C21.7608 6.848 21.6448 7.348 21.4288 7.764C21.2208 8.18 20.9288 8.5 20.5528 8.724C20.1768 8.94 19.7288 9.048 19.2088 9.048C18.7608 9.048 18.3528 8.968 17.9848 8.808C17.6248 8.64 17.3168 8.408 17.0608 8.112C16.8048 7.816 16.6088 7.472 16.4728 7.08C16.3368 6.68 16.2688 6.248 16.2688 5.784V5.508C16.2688 5.044 16.3408 4.612 16.4848 4.212C16.6288 3.812 16.8368 3.464 17.1088 3.168C17.3808 2.872 17.7048 2.644 18.0808 2.484C18.4568 2.316 18.8728 2.232 19.3288 2.232C19.8568 2.232 20.3128 2.348 20.6968 2.58C21.0888 2.812 21.3968 3.152 21.6208 3.6C21.8448 4.048 21.9648 4.588 21.9808 5.22L21.7168 5.292V2.424H23.2408V8.22C23.2408 9.028 23.0968 9.68 22.8088 10.176C22.5208 10.672 22.0808 11.036 21.4888 11.268C20.9048 11.5 20.1648 11.616 19.2688 11.616ZM19.8088 7.428C20.1048 7.428 20.3728 7.364 20.6128 7.236C20.8528 7.1 21.0408 6.908 21.1768 6.66C21.3208 6.412 21.3928 6.112 21.3928 5.76V5.412C21.3928 5.068 21.3168 4.78 21.1648 4.548C21.0208 4.308 20.8288 4.128 20.5888 4.008C20.3488 3.88 20.0928 3.816 19.8208 3.816C19.5008 3.816 19.2168 3.892 18.9688 4.044C18.7208 4.196 18.5288 4.408 18.3928 4.68C18.2568 4.952 18.1888 5.272 18.1888 5.64C18.1888 6.016 18.2568 6.34 18.3928 6.612C18.5368 6.876 18.7288 7.08 18.9688 7.224C19.2168 7.36 19.4968 7.428 19.8088 7.428ZM28.8753 9V7.056H28.5513V4.944C28.5513 4.608 28.4713 4.356 28.3113 4.188C28.1513 4.02 27.8953 3.936 27.5433 3.936C27.3673 3.936 27.1353 3.94 26.8473 3.948C26.5593 3.956 26.2633 3.968 25.9593 3.984C25.6553 4 25.3793 4.016 25.1313 4.032V2.412C25.3153 2.396 25.5313 2.38 25.7793 2.364C26.0273 2.348 26.2833 2.336 26.5473 2.328C26.8113 2.32 27.0593 2.316 27.2913 2.316C27.9633 2.316 28.5273 2.412 28.9833 2.604C29.4473 2.796 29.7993 3.088 30.0393 3.48C30.2793 3.864 30.3993 4.36 30.3993 4.968V9H28.8753ZM26.7753 9.168C26.3033 9.168 25.8873 9.084 25.5273 8.916C25.1753 8.748 24.8993 8.508 24.6993 8.196C24.4993 7.876 24.3993 7.496 24.3993 7.056C24.3993 6.576 24.5233 6.184 24.7713 5.88C25.0193 5.568 25.3673 5.34 25.8153 5.196C26.2633 5.044 26.7793 4.968 27.3633 4.968H28.7673V6.036H27.3513C27.0153 6.036 26.7553 6.12 26.5713 6.288C26.3953 6.448 26.3073 6.668 26.3073 6.948C26.3073 7.212 26.3953 7.428 26.5713 7.596C26.7553 7.756 27.0153 7.836 27.3513 7.836C27.5673 7.836 27.7593 7.8 27.9273 7.728C28.1033 7.648 28.2473 7.516 28.3593 7.332C28.4713 7.148 28.5353 6.892 28.5513 6.564L29.0073 7.044C28.9673 7.5 28.8553 7.884 28.6713 8.196C28.4953 8.508 28.2473 8.748 27.9273 8.916C27.6153 9.084 27.2313 9.168 26.7753 9.168ZM32.0283 9V0.24H33.9483V5.292H33.6603C33.6603 4.628 33.7443 4.068 33.9123 3.612C34.0803 3.156 34.3283 2.812 34.6563 2.58C34.9843 2.34 35.3963 2.22 35.8923 2.22H35.9763C36.7043 2.22 37.2603 2.48 37.6443 3C38.0283 3.512 38.2203 4.264 38.2203 5.256V9H36.3003V5.136C36.3003 4.776 36.1923 4.488 35.9763 4.272C35.7683 4.048 35.4923 3.936 35.1483 3.936C34.7883 3.936 34.4963 4.052 34.2723 4.284C34.0563 4.516 33.9483 4.824 33.9483 5.208V9H32.0283ZM42.8149 11.4V2.592H43.7269V5.364L43.5109 5.34C43.5509 4.652 43.6949 4.092 43.9429 3.66C44.1989 3.22 44.5309 2.896 44.9389 2.688C45.3469 2.48 45.7909 2.376 46.2709 2.376C46.7349 2.376 47.1549 2.464 47.5309 2.64C47.9149 2.816 48.2429 3.056 48.5149 3.36C48.7869 3.664 48.9949 4.016 49.1389 4.416C49.2829 4.816 49.3549 5.24 49.3549 5.688V5.904C49.3549 6.352 49.2789 6.776 49.1269 7.176C48.9749 7.576 48.7589 7.928 48.4789 8.232C48.2069 8.536 47.8789 8.776 47.4949 8.952C47.1189 9.128 46.7029 9.216 46.2469 9.216C45.7909 9.216 45.3549 9.116 44.9389 8.916C44.5229 8.716 44.1789 8.392 43.9069 7.944C43.6349 7.496 43.4789 6.908 43.4389 6.18L43.9669 7.14V11.4H42.8149ZM46.0669 8.208C46.4989 8.208 46.8749 8.108 47.1949 7.908C47.5149 7.7 47.7629 7.416 47.9389 7.056C48.1149 6.688 48.2029 6.268 48.2029 5.796C48.2029 5.316 48.1149 4.896 47.9389 4.536C47.7629 4.176 47.5149 3.896 47.1949 3.696C46.8749 3.488 46.4989 3.384 46.0669 3.384C45.6829 3.384 45.3269 3.472 44.9989 3.648C44.6709 3.816 44.4069 4.064 44.2069 4.392C44.0149 4.712 43.9189 5.1 43.9189 5.556V6.108C43.9189 6.548 44.0189 6.924 44.2189 7.236C44.4189 7.548 44.6829 7.788 45.0109 7.956C45.3389 8.124 45.6909 8.208 46.0669 8.208ZM51.0884 9V2.592H52.0004V5.232H51.9524C51.9524 4.296 52.1564 3.612 52.5644 3.18C52.9804 2.74 53.6004 2.52 54.4244 2.52H54.6404V3.552H54.2324C53.5924 3.552 53.1004 3.724 52.7564 4.068C52.4124 4.404 52.2404 4.892 52.2404 5.532V9H51.0884ZM59.8628 9V7.08H59.6708V4.86C59.6708 4.42 59.5548 4.088 59.3228 3.864C59.0988 3.64 58.7668 3.528 58.3268 3.528C58.0788 3.528 57.8228 3.532 57.5588 3.54C57.2948 3.548 57.0428 3.556 56.8028 3.564C56.5628 3.572 56.3548 3.584 56.1788 3.6V2.592C56.3548 2.576 56.5388 2.564 56.7308 2.556C56.9308 2.54 57.1348 2.532 57.3428 2.532C57.5508 2.524 57.7508 2.52 57.9428 2.52C58.5988 2.52 59.1348 2.6 59.5508 2.76C59.9668 2.912 60.2748 3.164 60.4748 3.516C60.6748 3.868 60.7748 4.344 60.7748 4.944V9H59.8628ZM57.7628 9.168C57.2828 9.168 56.8668 9.088 56.5148 8.928C56.1708 8.76 55.9028 8.52 55.7108 8.208C55.5268 7.896 55.4348 7.52 55.4348 7.08C55.4348 6.624 55.5348 6.244 55.7348 5.94C55.9428 5.636 56.2428 5.408 56.6348 5.256C57.0268 5.096 57.4988 5.016 58.0508 5.016H59.7908V5.88H58.0028C57.5388 5.88 57.1828 5.992 56.9348 6.216C56.6868 6.44 56.5628 6.728 56.5628 7.08C56.5628 7.432 56.6868 7.716 56.9348 7.932C57.1828 8.148 57.5388 8.256 58.0028 8.256C58.2748 8.256 58.5348 8.208 58.7828 8.112C59.0308 8.008 59.2348 7.84 59.3948 7.608C59.5628 7.368 59.6548 7.04 59.6708 6.624L59.9828 7.08C59.9428 7.536 59.8308 7.92 59.6468 8.232C59.4708 8.536 59.2228 8.768 58.9028 8.928C58.5908 9.088 58.2108 9.168 57.7628 9.168ZM65.5652 9.216C65.1092 9.216 64.6892 9.132 64.3052 8.964C63.9212 8.796 63.5852 8.56 63.2972 8.256C63.0172 7.952 62.7972 7.6 62.6372 7.2C62.4852 6.8 62.4092 6.368 62.4092 5.904V5.688C62.4092 5.232 62.4852 4.804 62.6372 4.404C62.7892 4.004 63.0012 3.652 63.2732 3.348C63.5532 3.044 63.8812 2.808 64.2572 2.64C64.6412 2.464 65.0652 2.376 65.5292 2.376C66.0172 2.376 66.4612 2.48 66.8612 2.688C67.2612 2.888 67.5892 3.204 67.8452 3.636C68.1012 4.068 68.2452 4.628 68.2772 5.316L67.7972 4.548V0.24H68.9492V9H68.0372V6.156H68.3732C68.3412 6.884 68.1892 7.476 67.9172 7.932C67.6452 8.38 67.3012 8.708 66.8852 8.916C66.4772 9.116 66.0372 9.216 65.5652 9.216ZM65.7212 8.208C66.1132 8.208 66.4692 8.12 66.7892 7.944C67.1092 7.768 67.3652 7.516 67.5572 7.188C67.7492 6.852 67.8452 6.46 67.8452 6.012V5.46C67.8452 5.02 67.7452 4.648 67.5452 4.344C67.3532 4.032 67.0932 3.796 66.7652 3.636C66.4452 3.468 66.0932 3.384 65.7092 3.384C65.2852 3.384 64.9092 3.484 64.5812 3.684C64.2612 3.884 64.0092 4.164 63.8252 4.524C63.6492 4.884 63.5612 5.308 63.5612 5.796C63.5612 6.284 63.6532 6.712 63.8372 7.08C64.0212 7.44 64.2772 7.72 64.6052 7.92C64.9332 8.112 65.3052 8.208 65.7212 8.208ZM75.0386 9V7.08H74.8466V4.86C74.8466 4.42 74.7306 4.088 74.4986 3.864C74.2746 3.64 73.9426 3.528 73.5026 3.528C73.2546 3.528 72.9986 3.532 72.7346 3.54C72.4706 3.548 72.2186 3.556 71.9786 3.564C71.7386 3.572 71.5306 3.584 71.3546 3.6V2.592C71.5306 2.576 71.7146 2.564 71.9066 2.556C72.1066 2.54 72.3106 2.532 72.5186 2.532C72.7266 2.524 72.9266 2.52 73.1186 2.52C73.7746 2.52 74.3106 2.6 74.7266 2.76C75.1426 2.912 75.4506 3.164 75.6506 3.516C75.8506 3.868 75.9506 4.344 75.9506 4.944V9H75.0386ZM72.9386 9.168C72.4586 9.168 72.0426 9.088 71.6906 8.928C71.3466 8.76 71.0786 8.52 70.8866 8.208C70.7026 7.896 70.6106 7.52 70.6106 7.08C70.6106 6.624 70.7106 6.244 70.9106 5.94C71.1186 5.636 71.4186 5.408 71.8106 5.256C72.2026 5.096 72.6746 5.016 73.2266 5.016H74.9666V5.88H73.1786C72.7146 5.88 72.3586 5.992 72.1106 6.216C71.8626 6.44 71.7386 6.728 71.7386 7.08C71.7386 7.432 71.8626 7.716 72.1106 7.932C72.3586 8.148 72.7146 8.256 73.1786 8.256C73.4506 8.256 73.7106 8.208 73.9586 8.112C74.2066 8.008 74.4106 7.84 74.5706 7.608C74.7386 7.368 74.8306 7.04 74.8466 6.624L75.1586 7.08C75.1186 7.536 75.0066 7.92 74.8226 8.232C74.6466 8.536 74.3986 8.768 74.0786 8.928C73.7666 9.088 73.3866 9.168 72.9386 9.168ZM78.0649 9V2.592H78.9769V5.34H78.8329C78.8329 4.708 78.9169 4.176 79.0849 3.744C79.2609 3.304 79.5249 2.972 79.8769 2.748C80.2289 2.516 80.6729 2.4 81.2089 2.4H81.2569C82.0649 2.4 82.6609 2.652 83.0449 3.156C83.4369 3.66 83.6329 4.388 83.6329 5.34V9H82.4809V5.1C82.4809 4.604 82.3409 4.208 82.0609 3.912C81.7809 3.608 81.3969 3.456 80.9089 3.456C80.4049 3.456 79.9969 3.612 79.6849 3.924C79.3729 4.236 79.2169 4.652 79.2169 5.172V9H78.0649ZM89.6167 9V7.08H89.4247V4.86C89.4247 4.42 89.3087 4.088 89.0767 3.864C88.8527 3.64 88.5207 3.528 88.0807 3.528C87.8327 3.528 87.5767 3.532 87.3127 3.54C87.0487 3.548 86.7967 3.556 86.5567 3.564C86.3167 3.572 86.1087 3.584 85.9327 3.6V2.592C86.1087 2.576 86.2927 2.564 86.4847 2.556C86.6847 2.54 86.8887 2.532 87.0967 2.532C87.3047 2.524 87.5047 2.52 87.6967 2.52C88.3527 2.52 88.8887 2.6 89.3047 2.76C89.7207 2.912 90.0287 3.164 90.2287 3.516C90.4287 3.868 90.5287 4.344 90.5287 4.944V9H89.6167ZM87.5167 9.168C87.0367 9.168 86.6207 9.088 86.2687 8.928C85.9247 8.76 85.6567 8.52 85.4647 8.208C85.2807 7.896 85.1887 7.52 85.1887 7.08C85.1887 6.624 85.2887 6.244 85.4887 5.94C85.6967 5.636 85.9967 5.408 86.3887 5.256C86.7807 5.096 87.2527 5.016 87.8047 5.016H89.5447V5.88H87.7567C87.2927 5.88 86.9367 5.992 86.6887 6.216C86.4407 6.44 86.3167 6.728 86.3167 7.08C86.3167 7.432 86.4407 7.716 86.6887 7.932C86.9367 8.148 87.2927 8.256 87.7567 8.256C88.0287 8.256 88.2887 8.208 88.5367 8.112C88.7847 8.008 88.9887 7.84 89.1487 7.608C89.3167 7.368 89.4087 7.04 89.4247 6.624L89.7367 7.08C89.6967 7.536 89.5847 7.92 89.4007 8.232C89.2247 8.536 88.9767 8.768 88.6567 8.928C88.3447 9.088 87.9647 9.168 87.5167 9.168Z" fill="white"/>
<path d="M94.8455 9V6.852H96.9575V9H94.8455Z" fill="#019BFB"/>
</svg>
