<svg width="94" height="12" viewBox="0 0 94 12" fill="none" xmlns="http://www.w3.org/2000/svg">
<path d="M3.28245 11.616C2.96245 11.616 2.63445 11.604 2.29845 11.58C1.96245 11.556 1.65445 11.524 1.37445 11.484V9.864C1.65445 9.904 1.96245 9.936 2.29845 9.96C2.64245 9.992 2.95445 10.008 3.23445 10.008C3.75445 10.008 4.17445 9.948 4.49445 9.828C4.82245 9.708 5.06245 9.524 5.21445 9.276C5.36645 9.036 5.44245 8.724 5.44245 8.34V7.032L5.79045 6.264C5.77445 6.848 5.65845 7.348 5.44245 7.764C5.23445 8.18 4.94245 8.5 4.56645 8.724C4.19045 8.94 3.74245 9.048 3.22245 9.048C2.77445 9.048 2.36645 8.968 1.99845 8.808C1.63845 8.64 1.33045 8.408 1.07445 8.112C0.818453 7.816 0.622453 7.472 0.486453 7.08C0.350453 6.68 0.282453 6.248 0.282453 5.784V5.508C0.282453 5.044 0.354453 4.612 0.498453 4.212C0.642453 3.812 0.850453 3.464 1.12245 3.168C1.39445 2.872 1.71845 2.644 2.09445 2.484C2.47045 2.316 2.88645 2.232 3.34245 2.232C3.87045 2.232 4.32645 2.348 4.71045 2.58C5.10245 2.812 5.41045 3.152 5.63445 3.6C5.85845 4.048 5.97845 4.588 5.99445 5.22L5.73045 5.292V2.424H7.25445V8.22C7.25445 9.028 7.11045 9.68 6.82245 10.176C6.53445 10.672 6.09445 11.036 5.50245 11.268C4.91845 11.5 4.17845 11.616 3.28245 11.616ZM3.82245 7.428C4.11845 7.428 4.38645 7.364 4.62645 7.236C4.86645 7.1 5.05445 6.908 5.19045 6.66C5.33445 6.412 5.40645 6.112 5.40645 5.76V5.412C5.40645 5.068 5.33045 4.78 5.17845 4.548C5.03445 4.308 4.84245 4.128 4.60245 4.008C4.36245 3.88 4.10645 3.816 3.83445 3.816C3.51445 3.816 3.23045 3.892 2.98245 4.044C2.73445 4.196 2.54245 4.408 2.40645 4.68C2.27045 4.952 2.20245 5.272 2.20245 5.64C2.20245 6.016 2.27045 6.34 2.40645 6.612C2.55045 6.876 2.74245 7.08 2.98245 7.224C3.23045 7.36 3.51045 7.428 3.82245 7.428ZM12.889 9V7.056H12.565V4.944C12.565 4.608 12.485 4.356 12.325 4.188C12.165 4.02 11.909 3.936 11.557 3.936C11.381 3.936 11.149 3.94 10.861 3.948C10.573 3.956 10.277 3.968 9.97302 3.984C9.66902 4 9.39302 4.016 9.14502 4.032V2.412C9.32902 2.396 9.54502 2.38 9.79302 2.364C10.041 2.348 10.297 2.336 10.561 2.328C10.825 2.32 11.073 2.316 11.305 2.316C11.977 2.316 12.541 2.412 12.997 2.604C13.461 2.796 13.813 3.088 14.053 3.48C14.293 3.864 14.413 4.36 14.413 4.968V9H12.889ZM10.789 9.168C10.317 9.168 9.90102 9.084 9.54102 8.916C9.18902 8.748 8.91302 8.508 8.71302 8.196C8.51302 7.876 8.41302 7.496 8.41302 7.056C8.41302 6.576 8.53702 6.184 8.78502 5.88C9.03302 5.568 9.38102 5.34 9.82902 5.196C10.277 5.044 10.793 4.968 11.377 4.968H12.781V6.036H11.365C11.029 6.036 10.769 6.12 10.585 6.288C10.409 6.448 10.321 6.668 10.321 6.948C10.321 7.212 10.409 7.428 10.585 7.596C10.769 7.756 11.029 7.836 11.365 7.836C11.581 7.836 11.773 7.8 11.941 7.728C12.117 7.648 12.261 7.516 12.373 7.332C12.485 7.148 12.549 6.892 12.565 6.564L13.021 7.044C12.981 7.5 12.869 7.884 12.685 8.196C12.509 8.508 12.261 8.748 11.941 8.916C11.629 9.084 11.245 9.168 10.789 9.168ZM18.634 11.616C18.314 11.616 17.986 11.604 17.65 11.58C17.314 11.556 17.006 11.524 16.726 11.484V9.864C17.006 9.904 17.314 9.936 17.65 9.96C17.994 9.992 18.306 10.008 18.586 10.008C19.106 10.008 19.526 9.948 19.846 9.828C20.174 9.708 20.414 9.524 20.566 9.276C20.718 9.036 20.794 8.724 20.794 8.34V7.032L21.142 6.264C21.126 6.848 21.01 7.348 20.794 7.764C20.586 8.18 20.294 8.5 19.918 8.724C19.542 8.94 19.094 9.048 18.574 9.048C18.126 9.048 17.718 8.968 17.35 8.808C16.99 8.64 16.682 8.408 16.426 8.112C16.17 7.816 15.974 7.472 15.838 7.08C15.702 6.68 15.634 6.248 15.634 5.784V5.508C15.634 5.044 15.706 4.612 15.85 4.212C15.994 3.812 16.202 3.464 16.474 3.168C16.746 2.872 17.07 2.644 17.446 2.484C17.822 2.316 18.238 2.232 18.694 2.232C19.222 2.232 19.678 2.348 20.062 2.58C20.454 2.812 20.762 3.152 20.986 3.6C21.21 4.048 21.33 4.588 21.346 5.22L21.082 5.292V2.424H22.606V8.22C22.606 9.028 22.462 9.68 22.174 10.176C21.886 10.672 21.446 11.036 20.854 11.268C20.27 11.5 19.53 11.616 18.634 11.616ZM19.174 7.428C19.47 7.428 19.738 7.364 19.978 7.236C20.218 7.1 20.406 6.908 20.542 6.66C20.686 6.412 20.758 6.112 20.758 5.76V5.412C20.758 5.068 20.682 4.78 20.53 4.548C20.386 4.308 20.194 4.128 19.954 4.008C19.714 3.88 19.458 3.816 19.186 3.816C18.866 3.816 18.582 3.892 18.334 4.044C18.086 4.196 17.894 4.408 17.758 4.68C17.622 4.952 17.554 5.272 17.554 5.64C17.554 6.016 17.622 6.34 17.758 6.612C17.902 6.876 18.094 7.08 18.334 7.224C18.582 7.36 18.862 7.428 19.174 7.428ZM28.2406 9V7.056H27.9166V4.944C27.9166 4.608 27.8366 4.356 27.6766 4.188C27.5166 4.02 27.2606 3.936 26.9086 3.936C26.7326 3.936 26.5006 3.94 26.2126 3.948C25.9246 3.956 25.6286 3.968 25.3246 3.984C25.0206 4 24.7446 4.016 24.4966 4.032V2.412C24.6806 2.396 24.8966 2.38 25.1446 2.364C25.3926 2.348 25.6486 2.336 25.9126 2.328C26.1766 2.32 26.4246 2.316 26.6566 2.316C27.3286 2.316 27.8926 2.412 28.3486 2.604C28.8126 2.796 29.1646 3.088 29.4046 3.48C29.6446 3.864 29.7646 4.36 29.7646 4.968V9H28.2406ZM26.1406 9.168C25.6686 9.168 25.2526 9.084 24.8926 8.916C24.5406 8.748 24.2646 8.508 24.0646 8.196C23.8646 7.876 23.7646 7.496 23.7646 7.056C23.7646 6.576 23.8886 6.184 24.1366 5.88C24.3846 5.568 24.7326 5.34 25.1806 5.196C25.6286 5.044 26.1446 4.968 26.7286 4.968H28.1326V6.036H26.7166C26.3806 6.036 26.1206 6.12 25.9366 6.288C25.7606 6.448 25.6726 6.668 25.6726 6.948C25.6726 7.212 25.7606 7.428 25.9366 7.596C26.1206 7.756 26.3806 7.836 26.7166 7.836C26.9326 7.836 27.1246 7.8 27.2926 7.728C27.4686 7.648 27.6126 7.516 27.7246 7.332C27.8366 7.148 27.9006 6.892 27.9166 6.564L28.3726 7.044C28.3326 7.5 28.2206 7.884 28.0366 8.196C27.8606 8.508 27.6126 8.748 27.2926 8.916C26.9806 9.084 26.5966 9.168 26.1406 9.168ZM31.3936 9V0.24H33.3136V5.292H33.0256C33.0256 4.628 33.1096 4.068 33.2776 3.612C33.4456 3.156 33.6936 2.812 34.0216 2.58C34.3496 2.34 34.7616 2.22 35.2576 2.22H35.3416C36.0696 2.22 36.6256 2.48 37.0096 3C37.3936 3.512 37.5856 4.264 37.5856 5.256V9H35.6656V5.136C35.6656 4.776 35.5576 4.488 35.3416 4.272C35.1336 4.048 34.8576 3.936 34.5136 3.936C34.1536 3.936 33.8616 4.052 33.6376 4.284C33.4216 4.516 33.3136 4.824 33.3136 5.208V9H31.3936ZM42.1802 11.4V2.592H43.0922V5.364L42.8762 5.34C42.9162 4.652 43.0602 4.092 43.3082 3.66C43.5642 3.22 43.8962 2.896 44.3042 2.688C44.7122 2.48 45.1562 2.376 45.6362 2.376C46.1002 2.376 46.5202 2.464 46.8962 2.64C47.2802 2.816 47.6082 3.056 47.8802 3.36C48.1522 3.664 48.3602 4.016 48.5042 4.416C48.6482 4.816 48.7202 5.24 48.7202 5.688V5.904C48.7202 6.352 48.6442 6.776 48.4922 7.176C48.3402 7.576 48.1242 7.928 47.8442 8.232C47.5722 8.536 47.2442 8.776 46.8602 8.952C46.4842 9.128 46.0682 9.216 45.6122 9.216C45.1562 9.216 44.7202 9.116 44.3042 8.916C43.8882 8.716 43.5442 8.392 43.2722 7.944C43.0002 7.496 42.8442 6.908 42.8042 6.18L43.3322 7.14V11.4H42.1802ZM45.4322 8.208C45.8642 8.208 46.2402 8.108 46.5602 7.908C46.8802 7.7 47.1282 7.416 47.3042 7.056C47.4802 6.688 47.5682 6.268 47.5682 5.796C47.5682 5.316 47.4802 4.896 47.3042 4.536C47.1282 4.176 46.8802 3.896 46.5602 3.696C46.2402 3.488 45.8642 3.384 45.4322 3.384C45.0482 3.384 44.6922 3.472 44.3642 3.648C44.0362 3.816 43.7722 4.064 43.5722 4.392C43.3802 4.712 43.2842 5.1 43.2842 5.556V6.108C43.2842 6.548 43.3842 6.924 43.5842 7.236C43.7842 7.548 44.0482 7.788 44.3762 7.956C44.7042 8.124 45.0562 8.208 45.4322 8.208ZM50.4536 9V2.592H51.3656V5.232H51.3176C51.3176 4.296 51.5216 3.612 51.9296 3.18C52.3456 2.74 52.9656 2.52 53.7896 2.52H54.0056V3.552H53.5976C52.9576 3.552 52.4656 3.724 52.1216 4.068C51.7776 4.404 51.6056 4.892 51.6056 5.532V9H50.4536ZM59.228 9V7.08H59.036V4.86C59.036 4.42 58.92 4.088 58.688 3.864C58.464 3.64 58.132 3.528 57.692 3.528C57.444 3.528 57.188 3.532 56.924 3.54C56.66 3.548 56.408 3.556 56.168 3.564C55.928 3.572 55.72 3.584 55.544 3.6V2.592C55.72 2.576 55.904 2.564 56.096 2.556C56.296 2.54 56.5 2.532 56.708 2.532C56.916 2.524 57.116 2.52 57.308 2.52C57.964 2.52 58.5 2.6 58.916 2.76C59.332 2.912 59.64 3.164 59.84 3.516C60.04 3.868 60.14 4.344 60.14 4.944V9H59.228ZM57.128 9.168C56.648 9.168 56.232 9.088 55.88 8.928C55.536 8.76 55.268 8.52 55.076 8.208C54.892 7.896 54.8 7.52 54.8 7.08C54.8 6.624 54.9 6.244 55.1 5.94C55.308 5.636 55.608 5.408 56 5.256C56.392 5.096 56.864 5.016 57.416 5.016H59.156V5.88H57.368C56.904 5.88 56.548 5.992 56.3 6.216C56.052 6.44 55.928 6.728 55.928 7.08C55.928 7.432 56.052 7.716 56.3 7.932C56.548 8.148 56.904 8.256 57.368 8.256C57.64 8.256 57.9 8.208 58.148 8.112C58.396 8.008 58.6 7.84 58.76 7.608C58.928 7.368 59.02 7.04 59.036 6.624L59.348 7.08C59.308 7.536 59.196 7.92 59.012 8.232C58.836 8.536 58.588 8.768 58.268 8.928C57.956 9.088 57.576 9.168 57.128 9.168ZM64.9304 9.216C64.4744 9.216 64.0544 9.132 63.6704 8.964C63.2864 8.796 62.9504 8.56 62.6624 8.256C62.3824 7.952 62.1624 7.6 62.0024 7.2C61.8504 6.8 61.7744 6.368 61.7744 5.904V5.688C61.7744 5.232 61.8504 4.804 62.0024 4.404C62.1544 4.004 62.3664 3.652 62.6384 3.348C62.9184 3.044 63.2464 2.808 63.6224 2.64C64.0064 2.464 64.4304 2.376 64.8944 2.376C65.3824 2.376 65.8264 2.48 66.2264 2.688C66.6264 2.888 66.9544 3.204 67.2104 3.636C67.4664 4.068 67.6104 4.628 67.6424 5.316L67.1624 4.548V0.24H68.3144V9H67.4024V6.156H67.7384C67.7064 6.884 67.5544 7.476 67.2824 7.932C67.0104 8.38 66.6664 8.708 66.2504 8.916C65.8424 9.116 65.4024 9.216 64.9304 9.216ZM65.0864 8.208C65.4784 8.208 65.8344 8.12 66.1544 7.944C66.4744 7.768 66.7304 7.516 66.9224 7.188C67.1144 6.852 67.2104 6.46 67.2104 6.012V5.46C67.2104 5.02 67.1104 4.648 66.9104 4.344C66.7184 4.032 66.4584 3.796 66.1304 3.636C65.8104 3.468 65.4584 3.384 65.0744 3.384C64.6504 3.384 64.2744 3.484 63.9464 3.684C63.6264 3.884 63.3744 4.164 63.1904 4.524C63.0144 4.884 62.9264 5.308 62.9264 5.796C62.9264 6.284 63.0184 6.712 63.2024 7.08C63.3864 7.44 63.6424 7.72 63.9704 7.92C64.2984 8.112 64.6704 8.208 65.0864 8.208ZM74.4038 9V7.08H74.2118V4.86C74.2118 4.42 74.0958 4.088 73.8638 3.864C73.6398 3.64 73.3078 3.528 72.8678 3.528C72.6198 3.528 72.3638 3.532 72.0998 3.54C71.8358 3.548 71.5838 3.556 71.3438 3.564C71.1038 3.572 70.8958 3.584 70.7198 3.6V2.592C70.8958 2.576 71.0798 2.564 71.2718 2.556C71.4718 2.54 71.6758 2.532 71.8838 2.532C72.0918 2.524 72.2918 2.52 72.4838 2.52C73.1398 2.52 73.6758 2.6 74.0918 2.76C74.5078 2.912 74.8158 3.164 75.0158 3.516C75.2158 3.868 75.3158 4.344 75.3158 4.944V9H74.4038ZM72.3038 9.168C71.8238 9.168 71.4078 9.088 71.0558 8.928C70.7118 8.76 70.4438 8.52 70.2518 8.208C70.0678 7.896 69.9758 7.52 69.9758 7.08C69.9758 6.624 70.0758 6.244 70.2758 5.94C70.4838 5.636 70.7838 5.408 71.1758 5.256C71.5678 5.096 72.0398 5.016 72.5918 5.016H74.3318V5.88H72.5438C72.0798 5.88 71.7238 5.992 71.4758 6.216C71.2278 6.44 71.1038 6.728 71.1038 7.08C71.1038 7.432 71.2278 7.716 71.4758 7.932C71.7238 8.148 72.0798 8.256 72.5438 8.256C72.8158 8.256 73.0758 8.208 73.3238 8.112C73.5718 8.008 73.7758 7.84 73.9358 7.608C74.1038 7.368 74.1958 7.04 74.2118 6.624L74.5238 7.08C74.4838 7.536 74.3718 7.92 74.1878 8.232C74.0118 8.536 73.7638 8.768 73.4438 8.928C73.1318 9.088 72.7518 9.168 72.3038 9.168ZM77.4302 9V2.592H78.3422V5.34H78.1982C78.1982 4.708 78.2822 4.176 78.4502 3.744C78.6262 3.304 78.8902 2.972 79.2422 2.748C79.5942 2.516 80.0382 2.4 80.5742 2.4H80.6222C81.4302 2.4 82.0262 2.652 82.4102 3.156C82.8022 3.66 82.9982 4.388 82.9982 5.34V9H81.8462V5.1C81.8462 4.604 81.7062 4.208 81.4262 3.912C81.1462 3.608 80.7622 3.456 80.2742 3.456C79.7702 3.456 79.3622 3.612 79.0502 3.924C78.7382 4.236 78.5822 4.652 78.5822 5.172V9H77.4302ZM88.982 9V7.08H88.79V4.86C88.79 4.42 88.674 4.088 88.442 3.864C88.218 3.64 87.886 3.528 87.446 3.528C87.198 3.528 86.942 3.532 86.678 3.54C86.414 3.548 86.162 3.556 85.922 3.564C85.682 3.572 85.474 3.584 85.298 3.6V2.592C85.474 2.576 85.658 2.564 85.85 2.556C86.05 2.54 86.254 2.532 86.462 2.532C86.67 2.524 86.87 2.52 87.062 2.52C87.718 2.52 88.254 2.6 88.67 2.76C89.086 2.912 89.394 3.164 89.594 3.516C89.794 3.868 89.894 4.344 89.894 4.944V9H88.982ZM86.882 9.168C86.402 9.168 85.986 9.088 85.634 8.928C85.29 8.76 85.022 8.52 84.83 8.208C84.646 7.896 84.554 7.52 84.554 7.08C84.554 6.624 84.654 6.244 84.854 5.94C85.062 5.636 85.362 5.408 85.754 5.256C86.146 5.096 86.618 5.016 87.17 5.016H88.91V5.88H87.122C86.658 5.88 86.302 5.992 86.054 6.216C85.806 6.44 85.682 6.728 85.682 7.08C85.682 7.432 85.806 7.716 86.054 7.932C86.302 8.148 86.658 8.256 87.122 8.256C87.394 8.256 87.654 8.208 87.902 8.112C88.15 8.008 88.354 7.84 88.514 7.608C88.682 7.368 88.774 7.04 88.79 6.624L89.102 7.08C89.062 7.536 88.95 7.92 88.766 8.232C88.59 8.536 88.342 8.768 88.022 8.928C87.71 9.088 87.33 9.168 86.882 9.168Z" fill="white"/>
<path d="M91.4803 9V6.852H93.5923V9H91.4803Z" fill="#019BFB"/>
</svg>
